<svg id="Capa_1" data-name="Capa 1" xmlns="http://www.w3.org/2000/svg" viewBox="0 0 200 39.07"><defs><style>.cls-1{fill:#fff;}</style></defs><title>LogoColmena</title><path class="cls-1" d="M70.54,35C62.28,35,57.49,29.34,57.49,22S63,8.51,71.52,8.51a14.37,14.37,0,0,1,6.72,1.41l0,4.32a12.23,12.23,0,0,0-6.56-1.85c-6,0-9,4.36-9,9.24,0,5.23,3.3,9.28,8.65,9.28a13.09,13.09,0,0,0,6.37-1.73l1.3,3.42A15.86,15.86,0,0,1,70.54,35" transform="translate(-1.64 -1.4)"/><path class="cls-1" d="M89.67,19.36c-3,0-4.44,2.52-4.44,6,0,3.62,1.69,6.05,4.56,6.05s4.44-2.55,4.44-6.05-1.65-6-4.56-6m6.76,13A9.11,9.11,0,0,1,89.71,35a9.2,9.2,0,0,1-6.41-2.32,9.73,9.73,0,0,1-2.87-7.27,10.11,10.11,0,0,1,2.71-7.19,9.09,9.09,0,0,1,6.6-2.63,9.26,9.26,0,0,1,6.84,2.67,10.07,10.07,0,0,1,2.48,7,9.84,9.84,0,0,1-2.63,7.07" transform="translate(-1.64 -1.4)"/><path class="cls-1" d="M106.93,35c-3.1,0-4.28-1.77-4.28-4.09V6.82h4.72v22c0,1.38.27,1.93,1.26,1.93a5.88,5.88,0,0,0,1.38-.2l0.59,3.5a7.42,7.42,0,0,1-3.66.94" transform="translate(-1.64 -1.4)"/><path class="cls-1" d="M137.5,34.65V23.37c0-2.08-.39-3.73-2.71-3.73a7.44,7.44,0,0,0-4.48,1.89,3.35,3.35,0,0,1,0,.67V34.65h-4.72V23.45c0-2.08-.39-3.81-2.67-3.81a7.43,7.43,0,0,0-4.48,1.89V34.65h-4.72V16.06h4l0.47,2a10.47,10.47,0,0,1,6.33-2.48,5.13,5.13,0,0,1,4.87,2.79A10.68,10.68,0,0,1,136,15.63c3.19,0,6.13,1.53,6.13,6.41V34.65H137.5Z" transform="translate(-1.64 -1.4)"/><path class="cls-1" d="M154,19.16a3.85,3.85,0,0,0-3.66,4.09h7.23c-0.08-2-1.18-4.09-3.58-4.09m-3.54,7.43a4.92,4.92,0,0,0,5.23,4.68A9.69,9.69,0,0,0,160.5,30l1.14,3a11.91,11.91,0,0,1-6.76,2c-6.49,0-9.24-4.72-9.24-9.71,0-5.31,3.15-9.71,8.45-9.71,5,0,8.34,3.81,8.34,9.59v1.38h-12Z" transform="translate(-1.64 -1.4)"/><path class="cls-1" d="M177.76,34.65V23.72c0-1.93-.35-4.05-2.75-4.05a8.16,8.16,0,0,0-4.72,2v13h-4.72V16.06h4l0.51,2a10.55,10.55,0,0,1,6.53-2.44c2.83,0,5.86,1.69,5.86,6.68V34.65h-4.72Z" transform="translate(-1.64 -1.4)"/><path class="cls-1" d="M196.49,26.12l-2.67.08c-2.55.08-3.69,0.94-3.69,2.52s1.06,2.59,3,2.59a4.91,4.91,0,0,0,3.34-1.18v-4Zm1.18,8.53L196.88,33a7.71,7.71,0,0,1-5.39,2,5.79,5.79,0,0,1-6.09-6c0-3.85,3-5.94,7.78-6.09l3.3-.12V22.39c0-2.24-1.57-3.14-3.54-3.14a9.12,9.12,0,0,0-4.79,1.38l-1.53-2.95a12.24,12.24,0,0,1,7.27-2c4.6,0,7.39,1.89,7.39,6.76v7.35a18.65,18.65,0,0,0,.35,4.91h-4Z" transform="translate(-1.64 -1.4)"/><path class="cls-1" d="M23.49,30.38v-3.7A2.67,2.67,0,0,0,22,24.25L21.47,24l-6.36-3-1-.47a3.92,3.92,0,0,0-3.12,0L7.71,22l-1.07.49L3.1,24.19a2.67,2.67,0,0,0-1.46,2.42V34A2.67,2.67,0,0,0,3.1,36.39l3.55,1.68,1.7,0.81L11,40.11a3.9,3.9,0,0,0,3.11.05l2.17-1,2.25-1.07L22,36.39A2.67,2.67,0,0,0,23.49,34v-3.7" transform="translate(-1.64 -1.4)"/><path class="cls-1" d="M48.54,30.38v-3.7a2.67,2.67,0,0,0-1.45-2.42L46.52,24l-6.36-3-1-.47a3.91,3.91,0,0,0-3.11,0L32.77,22l-1.07.49-3.55,1.68a2.68,2.68,0,0,0-1.46,2.42V34a2.68,2.68,0,0,0,1.46,2.43l3.55,1.68,1.7,0.81L36,40.11a3.9,3.9,0,0,0,3.12.05l2.17-1,2.25-1.07,3.55-1.68A2.67,2.67,0,0,0,48.54,34v-3.7" transform="translate(-1.64 -1.4)"/><path class="cls-1" d="M25,17a3.28,3.28,0,0,1-3.2-3.36,3.21,3.21,0,1,1,6.4,0A3.28,3.28,0,0,1,25,17m11-5.42V7.92a2.67,2.67,0,0,0-1.46-2.42L34,5.22l-6.36-3-1-.47a3.91,3.91,0,0,0-3.12,0L20.24,3.26l-1.07.49L15.62,5.43a2.68,2.68,0,0,0-1.46,2.42V15.2a2.68,2.68,0,0,0,1.46,2.43l3.55,1.68,1.7,0.81,2.6,1.23a3.91,3.91,0,0,0,3.12.05l2.16-1L31,19.3l3.55-1.68A2.67,2.67,0,0,0,36,15.2V11.62Z" transform="translate(-1.64 -1.4)"/></svg>