<?xml version="1.0" encoding="utf-8"?><svg version="1.1" id="Capa_1" xmlns="http://www.w3.org/2000/svg" xmlns:xlink="http://www.w3.org/1999/xlink" x="0px" y="0px" viewBox="0 0 245 48.1" style="enable-background:new 0 0 245 48.1;" xml:space="preserve"><style type="text/css">.st0{fill:#0074C8;}</style><title>LogoColmena</title><g><g><path class="st0" d="M55.6,24.3c-2.1,1.1-4,1.5-5.9,1.5c-6.1,0-9.4-3.9-9.4-9.4c0-5.4,3.8-9.7,9.8-9.7c2,0,3.7,0.4,4.9,0.9v3.2c-1.4-0.8-3-1.2-4.8-1.2c-4.1,0-6.3,3.1-6.3,6.7c0,3.9,2.4,6.6,6.2,6.6c1.8,0,3.2-0.5,4.6-1.3L55.6,24.3z"/><path class="st0" d="M56.6,18.8c0-4,2.7-7,6.7-7s6.7,3,6.7,7s-2.7,7-6.7,7C59.3,25.7,56.6,22.8,56.6,18.8z M66.5,18.8c0-2.5-1.1-4.3-3.2-4.3c-2.1,0-3.2,1.8-3.2,4.3s1.1,4.3,3.2,4.3C65.4,23,66.5,21.2,66.5,18.8z"/><path class="st0" d="M72.6,5.5H76v16c0,0.9,0.4,1.2,1,1.2c0.2,0,0.6-0.1,0.8-0.2l0.6,2.6c-0.8,0.3-1.7,0.5-2.5,0.5c-2.2,0-3.4-1.1-3.4-3.2L72.6,5.5L72.6,5.5z"/><path class="st0" d="M80.7,12.1h2.8l0.3,1.5c1.3-1,2.8-1.8,4.5-1.8c1.6,0,2.9,0.7,3.6,2.1c1.6-1.4,3.3-2.1,4.8-2.1c2.3,0,4.4,1.3,4.4,4.8v8.8h-3.4v-7.9c0-1.6-0.3-2.8-2-2.8c-1.1,0-2.2,0.5-3.2,1.3c0,0.1,0,0.3,0,0.5v8.9h-3.4v-7.9c0-1.5-0.3-2.8-2-2.8c-1.1,0-2.2,0.5-3.2,1.3v9.4h-3.4V12.1H80.7z"/><path class="st0" d="M107.7,19.7c0.1,2.1,1.6,3.4,3.8,3.4c1.3,0,2.4-0.4,3.4-0.9l1,2.3c-1.4,0.9-3.1,1.2-4.7,1.2c-4.8,0-6.8-3.3-6.8-6.9c0-4,2.2-7,6-7c3.7,0,5.9,2.7,5.9,7.1v0.8H107.7z M112.8,17.4c0-1.5-0.8-3-2.6-3c-1.7,0-2.6,1.4-2.6,3H112.8z"/><path class="st0" d="M118.7,12.1h2.9l0.3,1.5c1.4-1.1,2.9-1.8,4.6-1.8c2.1,0,4.3,1,4.3,4.8v8.8h-3.4v-7.8c0-1.6-0.3-3-2.1-3c-1.1,0-2.3,0.6-3.3,1.4v9.3h-3.4L118.7,12.1L118.7,12.1z"/><path class="st0" d="M141.5,24.2c-1,0.9-2.2,1.6-3.8,1.6c-2.5,0-4.4-1.7-4.4-4.3c0-1.8,0.9-2.9,2.3-3.6c0.9-0.5,2.1-0.7,3.4-0.8l2.3-0.1v-0.4c0-1.5-1-2.2-2.6-2.2c-1.3,0-2.5,0.4-3.5,0.9l-1.1-2.2c1.6-0.9,3.3-1.3,5.2-1.3c3.6,0,5.4,1.6,5.4,4.8V22c0,1.5,0.1,2.7,0.3,3.4h-3L141.5,24.2z M139.4,19.3c-0.9,0-1.5,0.2-1.9,0.4c-0.6,0.3-0.8,0.8-0.8,1.5c0,1.2,0.8,1.8,2,1.8s2.1-0.6,2.6-1v-2.8L139.4,19.3z"/><path class="st0" d="M150.3,21.5c1.1,0.8,2.5,1.4,4.2,1.4c1.6,0,3.1-0.6,3.1-2.2c0-3.6-8-3.2-8-8.8c0-2.7,2.2-5.1,6-5.1c1.9,0,3.5,0.4,4.5,0.9v3.1c-1.5-0.8-3-1.2-4.4-1.2c-1.3,0-2.5,0.5-2.5,2c0,3.4,8,3,8,8.9c0,3.3-2.8,5.3-6.6,5.3c-2.2,0-4.2-0.6-5.6-1.6L150.3,21.5z"/><path class="st0" d="M167,19.7c0.1,2.1,1.6,3.4,3.8,3.4c1.3,0,2.4-0.4,3.4-0.9l1,2.3c-1.4,0.9-3.1,1.2-4.7,1.2c-4.8,0-6.8-3.3-6.8-6.9c0-4,2.2-7,6-7c3.7,0,5.9,2.7,5.9,7.1v0.8H167z M172.1,17.4c0-1.5-0.8-3-2.6-3c-1.7,0-2.6,1.4-2.6,3H172.1z"/><path class="st0" d="M176.9,28.2c0-1.5,1-2.6,2.4-3.2c-0.6-0.3-0.9-1-0.9-1.7c0-0.8,0.5-1.7,1.6-2.5c-1.4-0.8-2.2-2.4-2.2-4.1c0-2.5,1.8-4.9,5.4-4.9c1.2,0,2.1,0.3,2.6,0.6c0.1,0.1,0.2,0,0.3-0.1c0.7-0.7,1.6-1.2,3.2-1.2c0.3,0,0.7,0,0.9,0.1l-0.7,2.4c-0.3-0.1-0.7-0.1-1-0.1s-0.7,0.1-1,0.2c0.8,0.8,1.2,2,1.2,3.2c0,3-2.3,4.9-5.5,4.9c-0.6,0-1.2-0.1-1.6-0.2c-0.3,0.4-0.3,0.7-0.3,1c0,2.4,8.8,0.2,8.8,5.2c0,2.4-2.4,4.4-7,4.4C179.2,32.1,176.9,30.5,176.9,28.2z M187,28.1c0-1.9-4.1-1.5-5.9-2.2c-0.4,0.3-1.1,0.9-1.1,1.7c0,1.3,1.4,2.1,3.6,2.1C185.6,29.8,187,29.1,187,28.1z M185.7,16.8c0-1.3-0.9-2.5-2.4-2.5c-1.3,0-2.3,0.9-2.3,2.5c0,1.3,0.8,2.5,2.3,2.5C184.7,19.3,185.7,18.4,185.7,16.8z"/><path class="st0" d="M192.7,23.1c-0.3-0.7-0.5-1.6-0.5-2.8v-8.2h3.4V20c0,0.7,0.1,1.2,0.3,1.7c0.3,0.8,1,1.2,2,1.2c1.1,0,2.1-0.5,2.7-1.2v-9.6h3.4v10c0,1.4,0,2.6,0.2,3.3h-2.9l-0.5-1.4c-1,0.9-2.4,1.7-4.1,1.7C195.4,25.7,193.6,25.2,192.7,23.1z"/><path class="st0" d="M208,12.1h2.8l0.4,1.5c1.2-1.2,2.3-1.8,3.7-1.8c0.6,0,1.4,0.2,1.9,0.5l-1.2,2.8c-0.6-0.4-1.1-0.4-1.5-0.4c-0.9,0-1.6,0.4-2.7,1.3v9.4H208V12.1z"/><path class="st0" d="M216.6,18.8c0-4,2.7-7,6.7-7s6.7,3,6.7,7s-2.7,7-6.7,7C219.3,25.7,216.6,22.8,216.6,18.8z M226.5,18.8c0-2.5-1.1-4.3-3.2-4.3c-2.1,0-3.2,1.8-3.2,4.3s1.1,4.3,3.2,4.3C225.4,23,226.5,21.2,226.5,18.8z"/><path class="st0" d="M232.5,22c1,0.6,2.3,1.1,3.6,1.1c1.4,0,2.3-0.4,2.3-1.4c0-2.3-6.3-1.4-6.3-5.9c0-2.4,1.9-4,5-4c1.5,0,2.8,0.3,3.9,0.6v2.8c-1.1-0.5-2.4-0.8-3.8-0.8c-1.1,0-1.9,0.3-1.9,1.2c0,2.1,6.3,1.3,6.3,5.9c0,2.9-2.5,4.1-5.4,4.1c-2.1,0-3.8-0.6-4.9-1.3L232.5,22z"/></g><path class="st0" d="M31.5,7.9l-0.7-0.4l-8.6-4.6l-1.4-0.7h-0.1c-0.3,0.2-0.6,0.5-0.6,1.1c0,1.4,0,2.9,0,2.9s0.2,1.2,0.7,2.3l0,0l5.3,2.8l0.4,0.2c0.8,0.4,1.2,1.3,1.2,2.3v3.4v0.1v3.4c0,1-0.5,1.8-1.2,2.3l-2.9,1.6l-1.9,1l-1.7,1c-0.8,0.4-1.8,0.4-2.6,0l-2.2-1.2l-1.4-0.8L10.9,23c-0.7-0.4-1.2-1.3-1.2-2.3v-7c0-1,0.5-1.8,1.2-2.3l2.9-1.6l0.9-0.5l2-1c0.4-0.6,0.6-1.3,0.6-1.9v-2c0,0,0.2-2.1-0.7-2.3c0,0,0,0-0.1,0l-4.4,2.3l-1.4,0.8L5.9,7.8c-1.2,0.7-2,2.2-2,3.7V23c0,1.6,0.8,3,2,3.7l4.8,2.6l2.3,1.2l3.6,1.9c1.3,0.7,2.9,0.7,4.2,0.1l2.9-1.5l3-1.7l4.7-2.6c1.2-0.7,2-2.1,2-3.7v-5.6v-0.1v-5.6C33.5,10.1,32.7,8.6,31.5,7.9z"/><circle class="st0" cx="18.8" cy="18.7" r="4.5"/></g><g><path class="st0" d="M40.4,33.1h2l2.1,5.4c0.3,0.8,0.5,1.4,0.7,2h0c0.2-0.6,0.4-1.2,0.7-2l2.1-5.4h1.9l-4,9.9h-1.5L40.4,33.1z"/><path class="st0" d="M50.7,33.6c0-0.6,0.5-1.1,1.1-1.1c0.6,0,1.1,0.5,1.1,1.1c0,0.6-0.5,1.1-1.1,1.1C51.1,34.7,50.7,34.2,50.7,33.6z M50.9,35.8h1.8v7.1h-1.8V35.8z"/><path class="st0" d="M54,39.5c0-2.3,1.6-3.8,3.9-3.8c0.3,0,0.7,0,1,0.1v-3.4h1.8v10.2c-0.7,0.3-1.7,0.5-2.6,0.5C55.7,43.1,54,41.8,54,39.5z M58.9,41.5v-4.2c-0.3-0.1-0.5-0.1-0.9-0.1c-1.2,0-2.2,0.8-2.2,2.3c0,1.4,0.9,2.2,2.2,2.2C58.3,41.6,58.6,41.6,58.9,41.5z"/><path class="st0" d="M66.4,42.3c-0.5,0.5-1.2,0.8-2,0.8c-1.4,0-2.4-0.9-2.4-2.3c0-1,0.5-1.6,1.2-1.9c0.5-0.3,1.1-0.4,1.8-0.4l1.2,0v-0.2c0-0.8-0.5-1.2-1.4-1.2c-0.7,0-1.4,0.2-1.9,0.5l-0.6-1.2c0.8-0.5,1.8-0.7,2.7-0.7c1.9,0,2.9,0.9,2.9,2.6v2.9c0,0.8,0,1.4,0.1,1.8h-1.5L66.4,42.3z M65.3,39.7c-0.5,0-0.8,0.1-1,0.2c-0.3,0.2-0.4,0.5-0.4,0.8c0,0.6,0.4,1,1,1c0.7,0,1.1-0.3,1.4-0.5v-1.5L65.3,39.7z"/><path class="st0" d="M77,43.2c-1.1,3-2.3,3.3-3.6,3.3c-0.6,0-1.1-0.1-1.6-0.3l0.5-1.4c0.3,0.2,0.7,0.3,1.1,0.3c0.8,0,1.4-0.5,2-2.1l-3.2-7H74l2.1,5h0l1.7-5h1.8L77,43.2z"/><path class="st0" d="M84.3,40.9c0.6,0.4,1.3,0.7,2.2,0.7c0.8,0,1.6-0.3,1.6-1.2c0-1.9-4.3-1.7-4.3-4.7c0-1.5,1.2-2.7,3.2-2.7c1,0,1.9,0.2,2.4,0.5v1.7c-0.8-0.4-1.6-0.6-2.4-0.6c-0.7,0-1.3,0.3-1.3,1.1c0,1.8,4.3,1.6,4.3,4.7c0,1.8-1.5,2.8-3.5,2.8c-1.2,0-2.2-0.3-3-0.9L84.3,40.9z"/><path class="st0" d="M95.7,42.3c-0.5,0.5-1.2,0.8-2,0.8c-1.4,0-2.4-0.9-2.4-2.3c0-1,0.5-1.6,1.2-1.9c0.5-0.3,1.1-0.4,1.8-0.4l1.2,0v-0.2c0-0.8-0.5-1.2-1.4-1.2c-0.7,0-1.4,0.2-1.9,0.5l-0.6-1.2c0.8-0.5,1.8-0.7,2.7-0.7c1.9,0,2.9,0.9,2.9,2.6v2.9c0,0.8,0,1.4,0.1,1.8H96L95.7,42.3z M94.6,39.7c-0.5,0-0.8,0.1-1,0.2c-0.3,0.2-0.4,0.5-0.4,0.8c0,0.6,0.4,1,1,1c0.7,0,1.1-0.3,1.4-0.5v-1.5L94.6,39.7z"/><path class="st0" d="M99.1,32.3h1.8v8.5c0,0.5,0.2,0.6,0.5,0.6c0.1,0,0.3,0,0.4-0.1l0.3,1.4c-0.4,0.2-0.9,0.3-1.3,0.3c-1.2,0-1.8-0.6-1.8-1.7V32.3z"/><path class="st0" d="M103.4,41.7c-0.2-0.4-0.2-0.8-0.2-1.5v-4.4h1.8V40c0,0.4,0,0.7,0.1,0.9c0.2,0.4,0.5,0.6,1.1,0.6c0.6,0,1.1-0.3,1.5-0.6v-5.1h1.8v5.3c0,0.8,0,1.4,0.1,1.8H108l-0.3-0.7c-0.5,0.5-1.3,0.9-2.2,0.9C104.9,43.1,103.9,42.8,103.4,41.7z"/><path class="st0" d="M110.8,39.5c0-2.3,1.6-3.8,3.9-3.8c0.3,0,0.7,0,1,0.1v-3.4h1.8v10.2c-0.7,0.3-1.7,0.5-2.6,0.5C112.6,43.1,110.8,41.8,110.8,39.5z M115.7,41.5v-4.2c-0.3-0.1-0.5-0.1-0.9-0.1c-1.2,0-2.2,0.8-2.2,2.3c0,1.4,0.9,2.2,2.2,2.2C115.1,41.6,115.4,41.6,115.7,41.5z"/></g></svg>